<?xml version="1.0" encoding="utf-8"?>
<!-- Generator: Adobe Illustrator 26.0.2, SVG Export Plug-In . SVG Version: 6.00 Build 0)  -->
<svg version="1.1" xmlns="http://www.w3.org/2000/svg" xmlns:xlink="http://www.w3.org/1999/xlink" x="0px" y="0px"
	 viewBox="0 0 300 300" style="enable-background:new 0 0 300 300;" xml:space="preserve">
<style type="text/css">
	.st0{fill:#3DC3CC;stroke:#000000;stroke-miterlimit:10;}
	.st1{fill:#FFFFFF;}
</style>
<symbol  id="logo_symbol" viewBox="-124.48 0 248.96 321.35">
	<g>
		<g>
			<path d="M105.04,188.38c0.38,0.55,0.76,1.09,1.12,1.65c7.65,11.77,11.48,25.97,11.48,42.6c0,28.84-10.78,50.83-32.33,65.99
				c-21.56,15.15-53.01,22.73-94.35,22.73h-115.43V189.57l117.25-28.16L105.04,188.38z M111.02,139.27
				c-0.03,0.04-0.06,0.07-0.09,0.11L-4.24,111.72c-0.98-0.24-1.99-0.35-3-0.35c-1.01,0-2.02,0.12-3,0.35l-114.24,27.44V0H5.96
				C45.1,0.29,74.63,8.35,94.57,24.17c19.94,15.81,29.91,39.47,29.91,70.96C124.48,112.48,119.99,127.2,111.02,139.27z"/>
		</g>
	</g>
</symbol>
<g id="Baseless">
</g>
<g id="B">
	
		<use xlink:href="#logo_symbol"  width="248.96" height="321.35" x="-124.48" transform="matrix(0.78 0 0 -0.78 156 275.3333)" style="overflow:visible;"/>
</g>
<g id="Profile_picture">
</g>
</svg>
